<svg width="26" height="26" viewBox="0 0 26 26" fill="none" xmlns="http://www.w3.org/2000/svg">
<circle cx="13" cy="13" r="13" fill="#F1F1F1" fill-opacity="0.972549"/>
<path d="M12.4471 14.7207L11.368 15.7998C11.1405 16.0273 10.7788 16.0273 10.5455 15.8057C10.4813 15.7415 10.4171 15.6832 10.353 15.619C9.75214 15.0123 9.20964 14.3765 8.72547 13.7115C8.24714 13.0465 7.86214 12.3815 7.58214 11.7223C7.30797 11.0573 7.16797 10.4215 7.16797 9.81484C7.16797 9.41817 7.23797 9.039 7.37797 8.689C7.51797 8.33317 7.73964 8.0065 8.0488 7.71484C8.42214 7.34734 8.83047 7.1665 9.26214 7.1665C9.42547 7.1665 9.5888 7.2015 9.73464 7.2715C9.8863 7.3415 10.0205 7.4465 10.1255 7.59817L11.4788 9.50567C11.5838 9.6515 11.6596 9.78567 11.7121 9.914C11.7646 10.0365 11.7938 10.159 11.7938 10.2698C11.7938 10.4098 11.753 10.5498 11.6713 10.684C11.5955 10.8182 11.4846 10.9582 11.3446 11.0982L10.9013 11.559C10.8371 11.6232 10.808 11.699 10.808 11.7923C10.808 11.839 10.8138 11.8798 10.8255 11.9265C10.843 11.9732 10.8605 12.0082 10.8721 12.0432C10.9771 12.2357 11.158 12.4865 11.4146 12.7898C11.6771 13.0932 11.9571 13.4023 12.2605 13.7115C12.3188 13.7698 12.383 13.8282 12.4413 13.8865C12.6746 14.114 12.6805 14.4873 12.4471 14.7207Z" fill="black"/>
<path d="M18.8174 16.6924C18.8174 16.8558 18.7882 17.0249 18.7299 17.1883C18.7124 17.2349 18.6949 17.2816 18.6716 17.3283C18.5724 17.5383 18.4441 17.7366 18.2749 17.9233C17.9891 18.2383 17.6741 18.4658 17.3182 18.6116C17.3124 18.6116 17.3066 18.6174 17.3007 18.6174C16.9566 18.7574 16.5832 18.8333 16.1807 18.8333C15.5857 18.8333 14.9499 18.6933 14.2791 18.4074C13.6082 18.1216 12.9374 17.7366 12.2724 17.2524C12.0449 17.0833 11.8174 16.9141 11.6016 16.7333L13.5091 14.8258C13.6724 14.9483 13.8182 15.0416 13.9407 15.1058C13.9699 15.1174 14.0049 15.1349 14.0457 15.1524C14.0924 15.1699 14.1391 15.1758 14.1916 15.1758C14.2907 15.1758 14.3666 15.1408 14.4307 15.0766L14.8741 14.6391C15.0199 14.4933 15.1599 14.3824 15.2941 14.3124C15.4282 14.2308 15.5624 14.1899 15.7082 14.1899C15.8191 14.1899 15.9357 14.2133 16.0641 14.2658C16.1924 14.3183 16.3266 14.3941 16.4724 14.4933L18.4032 15.8641C18.5549 15.9691 18.6599 16.0916 18.7241 16.2374C18.7824 16.3833 18.8174 16.5291 18.8174 16.6924Z" fill="black"/>
</svg>
