<svg width="209" height="86" viewBox="0 0 209 86" fill="none" xmlns="http://www.w3.org/2000/svg">
<path d="M69.0442 37.625V15.05H78.1335C79.6748 15.05 80.9732 15.2972 82.0289 15.7917C83.0846 16.2862 83.8763 16.9742 84.4042 17.8557C84.9531 18.7157 85.2276 19.7155 85.2276 20.855C85.2276 21.9945 84.9848 22.9513 84.4992 23.7252C84.0136 24.4992 83.3696 25.1012 82.5673 25.5312C81.7861 25.9397 80.9205 26.1762 79.9704 26.2407L80.4771 25.886C81.4905 25.929 82.3878 26.2085 83.169 26.7245C83.9713 27.219 84.5942 27.8855 85.0376 28.724C85.5021 29.5625 85.7343 30.4762 85.7343 31.4653C85.7343 32.6693 85.4493 33.7335 84.8792 34.658C84.3092 35.5825 83.4857 36.3135 82.409 36.851C81.3322 37.367 80.0126 37.625 78.4502 37.625H69.0442ZM73.3196 34.0775H77.7535C78.9147 34.0775 79.812 33.8088 80.4454 33.2712C81.0788 32.7337 81.3955 31.9597 81.3955 30.9492C81.3955 29.9387 81.0683 29.154 80.4137 28.595C79.7592 28.0145 78.8513 27.7242 77.6901 27.7242H73.3196V34.0775ZM73.3196 24.467H77.4368C78.5558 24.467 79.4003 24.209 79.9704 23.693C80.5615 23.177 80.8571 22.446 80.8571 21.5C80.8571 20.5755 80.5615 19.8552 79.9704 19.3392C79.4003 18.8018 78.5452 18.533 77.4051 18.533H73.3196V24.467Z" fill="#E73725"/>
<path d="M98.7481 38.012C96.5945 38.012 94.6943 37.5175 93.0475 36.5285C91.4006 35.5395 90.1127 34.1742 89.1837 32.4327C88.2547 30.6697 87.7902 28.638 87.7902 26.3375C87.7902 24.037 88.2547 22.016 89.1837 20.2745C90.1127 18.5115 91.4006 17.1355 93.0475 16.1465C94.6943 15.1575 96.5945 14.663 98.7481 14.663C100.923 14.663 102.834 15.1575 104.48 16.1465C106.127 17.1355 107.405 18.5115 108.312 20.2745C109.241 22.016 109.706 24.037 109.706 26.3375C109.706 28.638 109.241 30.6697 108.312 32.4327C107.405 34.1742 106.127 35.5395 104.48 36.5285C102.834 37.5175 100.923 38.012 98.7481 38.012ZM98.7481 34.1097C100.099 34.1097 101.261 33.798 102.232 33.1745C103.224 32.5295 103.995 31.6265 104.544 30.4655C105.093 29.3045 105.367 27.9285 105.367 26.3375C105.367 24.725 105.093 23.349 104.544 22.2095C103.995 21.0485 103.224 20.1562 102.232 19.5327C101.261 18.9092 100.099 18.5975 98.7481 18.5975C97.4179 18.5975 96.2567 18.9092 95.2644 19.5327C94.272 20.1562 93.5014 21.0485 92.9525 22.2095C92.4035 23.349 92.129 24.725 92.129 26.3375C92.129 27.9285 92.4035 29.3045 92.9525 30.4655C93.5014 31.6265 94.272 32.5295 95.2644 33.1745C96.2567 33.798 97.4179 34.1097 98.7481 34.1097Z" fill="#E73725"/>
<path d="M122.862 38.012C120.708 38.012 118.808 37.5175 117.161 36.5285C115.514 35.5395 114.226 34.1742 113.297 32.4327C112.368 30.6697 111.904 28.638 111.904 26.3375C111.904 24.037 112.368 22.016 113.297 20.2745C114.226 18.5115 115.514 17.1355 117.161 16.1465C118.808 15.1575 120.708 14.663 122.862 14.663C125.036 14.663 126.947 15.1575 128.594 16.1465C130.241 17.1355 131.518 18.5115 132.426 20.2745C133.355 22.016 133.82 24.037 133.82 26.3375C133.82 28.638 133.355 30.6697 132.426 32.4327C131.518 34.1742 130.241 35.5395 128.594 36.5285C126.947 37.5175 125.036 38.012 122.862 38.012ZM122.862 34.1097C124.213 34.1097 125.374 33.798 126.345 33.1745C127.338 32.5295 128.108 31.6265 128.657 30.4655C129.206 29.3045 129.481 27.9285 129.481 26.3375C129.481 24.725 129.206 23.349 128.657 22.2095C128.108 21.0485 127.338 20.1562 126.345 19.5327C125.374 18.9092 124.213 18.5975 122.862 18.5975C121.532 18.5975 120.37 18.9092 119.378 19.5327C118.386 20.1562 117.615 21.0485 117.066 22.2095C116.517 23.349 116.243 24.725 116.243 26.3375C116.243 27.9285 116.517 29.3045 117.066 30.4655C117.615 31.6265 118.386 32.5295 119.378 33.1745C120.37 33.798 121.532 34.1097 122.862 34.1097Z" fill="#E73725"/>
<path d="M136.746 37.625V15.05H141.021V23.9832L149.034 15.05H154.291L146.152 23.9832L154.544 37.625H149.319L143.08 27.3695L141.021 29.627V37.625H136.746Z" fill="#E73725"/>
<path d="M163.447 37.625V15.05H168.546L175.324 29.1432L182.038 15.05H187.137V37.625H182.861V22.4675L177.002 34.4645H173.614L167.723 22.4675V37.625H163.447Z" fill="#E73725"/>
<path d="M196.51 37.625V29.6915L189.036 15.05H193.881L199.107 26.2085H198.252L203.446 15.05H208.259L200.785 29.6915V37.625H196.51Z" fill="#E73725"/>
<path d="M69.6512 73.4583V44.6125H80.2536C82.5468 44.6125 84.4487 45.0108 85.9595 45.8075C87.4703 46.6042 88.5899 47.6756 89.3183 49.0218C90.0467 50.3679 90.4109 51.9064 90.4109 53.6371C90.4109 55.2305 90.0602 56.7003 89.3588 58.0464C88.6573 59.3926 87.5512 60.4914 86.0405 61.3431C84.5297 62.1672 82.6007 62.5793 80.2536 62.5793H75.1143V73.4583H69.6512ZM75.1143 58.0876H79.9299C81.6835 58.0876 82.938 57.6893 83.6933 56.8926C84.4757 56.0684 84.8669 54.9833 84.8669 53.6371C84.8669 52.2086 84.4757 51.1097 83.6933 50.3405C82.938 49.5438 81.6835 49.1454 79.9299 49.1454H75.1143V58.0876Z" fill="#E73725"/>
<path d="M93.7872 73.4583V44.6125H99.2503V69.1315H111.674V73.4583H93.7872Z" fill="#E73725"/>
<path d="M113.729 73.4583L124.089 44.6125H130.28L140.599 73.4583H134.813L127.164 50.9586L119.475 73.4583H113.729ZM118.302 66.9062L119.759 62.5793H134.165L135.581 66.9062H118.302Z" fill="#E73725"/>
<path d="M147.566 73.4583V63.3211L138.016 44.6125H144.207L150.884 58.8706H149.792L156.428 44.6125H162.579L153.029 63.3211V73.4583H147.566Z" fill="#E73725"/>
<path d="M165.207 73.4583V44.6125H183.822V49.1042H170.67V56.6453H182.608V60.9722H170.67V68.9666H183.822V73.4583H165.207Z" fill="#E73725"/>
<path d="M188.078 73.4583V44.6125H198.64C200.934 44.6125 202.822 45.0108 204.306 45.8075C205.79 46.6042 206.896 47.6756 207.624 49.0218C208.353 50.3405 208.717 51.8102 208.717 53.4311C208.717 54.9695 208.366 56.4118 207.665 57.758C206.963 59.0766 205.857 60.148 204.346 60.9722C202.862 61.7689 200.947 62.1672 198.6 62.1672H193.542V73.4583H188.078ZM202.768 73.4583L196.941 60.7662H202.849L209 73.4583H202.768ZM193.542 58.1288H198.317C199.962 58.1288 201.176 57.7167 201.959 56.8926C202.741 56.0684 203.132 54.9833 203.132 53.6371C203.132 52.291 202.741 51.2333 201.959 50.4641C201.203 49.6674 199.989 49.269 198.317 49.269H193.542V58.1288Z" fill="#E73725"/>
<path d="M59.8212 80.8355C54.832 80.9118 50.4542 80.9881 46.6145 81.0645C47.2749 80.8101 47.3727 80.5302 47.3727 80.5302C47.3727 80.5302 47.6662 80.1232 46.6145 79.6652C45.5629 79.2073 44.5357 77.9861 43.8998 78.0624C43.2884 78.1388 42.677 78.3677 42.2857 78.3677C42.2857 78.3677 43.0683 77.9861 43.4596 77.6045C43.4596 77.6045 41.4786 78.2405 40.3292 77.7317C40.3292 77.7317 41.1607 77.3501 41.9188 76.8413C41.9188 76.8413 41.821 76.1289 40.9406 76.307C40.0601 76.4597 39.5465 76.9176 38.6906 76.9685C37.8346 77.0194 37.3943 76.8667 37.3943 76.8667C37.3943 76.8667 38.4949 76.1798 39.302 75.8745C39.9623 75.6201 41.0629 75.4929 41.0629 75.4929C41.2585 75.3912 41.9188 73.4831 45.3183 67.7843C45.9053 66.8176 46.9569 65.2657 47.7151 64.1208C48.4488 63.0014 49.0602 61.6276 48.9624 60.7626C48.8646 59.8468 47.8863 56.0052 46.052 54.6823C44.2422 53.3593 43.3129 52.6216 43.3129 52.6216C43.3129 52.6216 44.7314 53.0795 45.7586 53.7918C46.7857 54.5042 47.5439 54.5042 47.5439 54.5042C47.5439 54.5042 46.8591 53.1813 46.6145 52.6216C46.37 52.0619 43.9243 50.7898 43.1172 50.5863C42.3346 50.3828 39.2531 52.3163 38.6172 53.3339C38.715 52.9269 38.8862 52.5452 39.0819 52.2654C39.7422 51.375 41.7476 50.1792 41.7476 50.1792C41.7476 50.1792 37.7612 51.4258 36.4161 53.2576C36.4161 53.2576 38.128 50.281 41.0873 49.0598C42.8482 48.3221 44.6091 48.4238 44.6091 48.4238C43.6797 46.8465 40.6715 43.0558 40.6471 43.0558C38.0058 42.4961 32.6497 43.5646 32.6497 43.5646C33.5546 42.9032 36.3916 42.3689 37.9079 42.1145C38.4949 42.0127 38.9107 41.9618 38.9107 41.9618C38.9107 41.9618 38.9107 41.8092 38.8862 41.5293C38.7884 40.3591 38.1281 35.1691 37.2476 32.625C36.0248 29.0633 34.7041 26.2903 34.7041 26.2903C34.7041 26.2903 36.3916 28.0457 38.1036 30.5389C39.2531 32.218 39.9868 35.1946 39.9868 35.1946C39.4732 29.4195 35.1932 22.754 35.1932 22.754C37.4677 24.5857 39.5221 27.4097 40.8672 29.8011C40.5737 24.5348 39.1308 19.9555 37.2231 18.6325C37.8835 19.065 39.4976 20.159 40.3781 21.5837C40.3781 21.5837 41.9678 19.3195 42.7504 18.4036C43.8265 17.157 44.9026 16.3683 44.9026 16.3683C44.9026 16.3683 44.8536 16.2411 44.7558 16.0376C44.927 15.8595 45.0982 15.656 45.2939 15.4524C46.3455 14.4348 46.5656 13.8497 46.5656 13.8497C46.0276 14.2313 45.0738 14.4602 45.0738 14.4602C45.0738 14.4602 46.0765 13.7225 46.7124 12.9592C47.3482 12.2214 47.7395 11.7381 47.7395 11.7381C47.4705 12.4504 47.2993 13.1882 47.2993 13.1882C47.7885 12.9338 49.0602 12.3741 50.0629 10.7968C51.0657 9.19398 52.6309 7.00607 53.2668 6.16652C53.9026 5.32697 54.6853 3.9786 54.6853 3.9786C54.6853 4.48742 54.7831 5.35241 54.7831 5.35241C55.0032 5.098 56.0304 4.23301 56.1527 4.13125C56.5195 3.90228 57.4 3.80052 57.5467 3.69875C57.7913 3.49523 57.8157 3.03729 57.8157 3.03729C57.6445 3.26626 57.2288 3.31714 57.2288 3.31714C57.351 3.08817 57.669 3.08817 57.5956 2.50303C57.5467 2.1723 57.2777 1.91789 57.2777 1.91789C57.2777 1.91789 57.4244 3.11361 56.9842 3.13905L55.9325 3.26626C55.9325 3.26626 56.5684 3.01185 56.7152 2.70656C56.8619 2.42671 56.6663 1.58716 56.4951 1.38363C56.2994 1.20555 55.688 1.00202 55.7858 0.976578C55.8836 0.951137 56.7152 0.671289 57.0331 0.620407C57.351 0.569526 57.5956 0.340557 57.2777 0.162471C56.9597 -0.0156155 55.8103 0.00982581 55.8103 0.00982581C55.2722 -0.0919377 54.5385 0.620406 54.2206 1.0529C53.9026 1.4854 54.0494 2.19774 53.9026 3.03729C53.7559 3.90228 52.2885 5.35241 52.2885 5.35241C52.5331 4.81815 52.6553 3.9786 52.6553 3.9786C52.6553 3.9786 51.0901 5.5305 49.3292 6.11564C47.5683 6.70078 45.2694 8.93958 44.1933 10.1607C43.6797 10.7459 42.946 11.1784 42.1879 11.56C43.1906 12.0434 43.6553 13.5189 43.8509 14.1804C43.8998 14.3585 43.9243 14.4857 43.9488 14.5111C43.9488 14.5111 43.1417 13.4172 42.3102 12.9084C41.7721 12.5776 41.2585 12.3487 40.8427 12.2214C40.5248 12.1197 40.2802 12.0434 40.1335 12.0179L36.5139 13.2391C36.3916 13.0101 36.1226 12.832 36.1226 12.832C36.0981 13.5189 35.5845 15.5288 34.5574 16.6482C34.3617 16.8771 34.0682 17.1061 33.7992 17.3096C33.4324 17.4623 33.09 16.8771 33.1633 16.6736C33.2122 16.5464 33.7503 16.4446 33.7503 16.4446C33.7503 16.4446 33.4813 16.3174 33.2612 16.3174C32.9677 16.3174 32.6742 16.292 32.6742 16.292C32.6742 16.292 33.1633 16.0121 33.5302 15.9867C33.897 15.9613 34.4351 15.8341 34.4351 15.8341C34.4351 15.8341 34.0438 15.6814 33.7014 15.5796C33.3345 15.4779 32.772 15.427 32.772 15.427C32.772 15.427 32.772 15.427 32.9921 15.198C33.2122 14.9691 33.7992 14.5874 33.7992 14.5874L33.1389 12.5013C33.1389 12.5013 32.8699 12.2978 32.5519 12.2469C32.234 12.196 31.2557 11.8144 31.2557 11.8144L32.6008 11.8398L32.0872 9.32119C32.0872 9.32119 33.041 9.49927 33.6035 9.37207C34.1416 9.27031 35.4378 8.43076 35.4378 8.43076L36.2204 10.3134C36.2204 10.3134 36.1715 9.21942 36.0981 8.76149C36.0248 8.30355 35.609 6.59901 35.4134 6.24284C35.071 5.68314 34.3373 5.35241 34.3373 5.35241C32.3073 4.48742 29.1035 4.76727 27.954 6.85342C27.6117 7.48945 27.3182 8.43076 27.7584 9.93177C28.0519 10.8731 28.2475 11.1529 28.2475 11.1529C28.2475 11.1529 27.4894 11.2293 27.4649 11.5345C27.4405 11.8653 27.6117 12.8066 28.0274 13.2645C28.4432 13.7225 29.0301 14.155 29.0301 14.155C29.0301 14.155 29.0301 14.155 29.2747 14.8927C29.3481 15.0963 29.4459 15.3507 29.5682 15.6051C29.128 16.1139 28.3943 16.8517 27.6606 17.2587C26.4866 17.8948 24.7991 18.9887 24.7013 19.065C24.2122 19.3703 23.8209 19.6502 23.6007 19.9046C24.2855 19.6247 25.0682 19.3703 25.7285 19.1414C26.4866 18.887 27.0736 18.7089 27.0736 18.7089C27.0736 18.7089 26.8535 18.887 26.4866 19.1668C26.0464 19.4975 25.4105 19.93 24.6035 20.4134C23.2094 21.2275 21.5219 22.8812 20.7149 23.9242C19.6143 25.4507 18.636 26.7991 18.636 26.7991C18.636 26.7991 19.0273 26.9772 19.5165 27.257C19.1741 28.3001 18.4159 30.6406 18.0002 31.3021C17.4621 32.1417 16.8751 33.1847 16.8751 33.1847L17.4866 33.0321C18.2692 33.0066 18.954 33.5155 18.954 33.5155C18.954 33.5155 17.0219 34.4568 15.8724 36.085C14.723 37.7132 14.6985 39.7994 14.6985 39.7994C14.405 39.4941 13.6469 38.7563 13.2555 38.3492C13.2311 38.4256 13.2066 38.5019 13.1822 38.5782C13.1577 38.6291 13.1333 38.68 13.1333 38.7308C13.3045 39.4941 13.5979 40.7407 13.867 41.2241C14.5518 42.4198 15.8724 43.3102 15.8724 43.3102C15.8724 43.3102 13.1088 42.0382 12.3262 40.9442C12.3262 40.9442 12.742 42.318 13.4267 43.2339C13.3045 43.2084 13.1822 43.1576 13.0599 43.1067C12.5952 42.9286 12.1305 42.5724 11.7392 42.1654C11.6903 42.9286 11.8615 43.3102 12.2284 43.5646C12.6686 43.8699 12.742 44.1498 13.2066 44.2006C13.6713 44.2515 13.4757 44.2515 14.0871 44.6331C14.6985 44.9893 14.4539 44.3278 15.0898 44.5059C15.7257 44.7094 15.7746 44.3024 15.7746 44.3024C15.7746 44.3024 16.2637 44.6331 16.4838 44.3533C16.6795 44.048 16.6306 43.5901 16.7773 42.7251C16.9241 41.8601 16.7039 41.8855 16.2882 41.3767C15.8969 40.8679 15.4567 40.2573 15.4567 40.2573C15.4567 40.2573 15.6279 39.3923 16.3126 38.6036C16.9974 37.7895 18.1958 37.0263 18.8806 36.3394C19.6388 35.6016 19.6632 34.9147 20.1034 34.2533C20.5681 33.2356 20.4458 32.9812 20.9105 32.0145C20.9839 31.8364 22.1823 30.6915 22.0111 30.3099C21.5464 29.3686 21.0328 28.5291 20.5926 27.893C20.7393 27.9948 20.8861 28.122 21.0083 28.2238C21.9132 29.0124 22.8426 30.0046 22.8426 30.0046C22.8426 30.0046 23.6007 29.0887 24.2611 28.3764C24.2611 28.3764 25.5328 27.2061 27.8073 24.484C27.8073 24.484 26.7312 27.2824 26.1687 28.6308C26.1687 28.6563 26.1442 28.6817 26.1442 28.7071C27.1225 27.9693 28.1497 27.0789 28.1497 27.0789C28.1497 27.0789 25.704 31.1495 25.1415 33.5409C25.0926 34.4059 25.4839 37.1026 25.2149 38.68C25.3616 38.6036 25.4839 38.5528 25.6307 38.5019C27.4405 37.815 29.9106 37.8659 29.9106 37.8659C29.2747 37.9676 28.4921 38.222 27.685 38.5528C26.1932 39.1633 24.6524 40.0792 24.0165 40.8424L23.9431 40.8933C23.5763 41.453 23.2828 41.9618 23.1361 42.2926C23.1361 42.2926 23.9676 41.5802 25.4105 41.1477L25.3861 41.1732C26.1443 40.9442 27.6117 40.588 29.397 40.3336C31.5736 40.0538 34.3617 40.5626 35.3155 40.7661C35.5356 40.817 35.6579 40.8424 35.6579 40.8424C35.5845 40.8424 35.5356 40.8424 35.4623 40.8424C32.6742 40.6644 30.7177 40.7407 27.9296 41.5802C27.1225 41.8346 25.9731 42.3435 24.9214 42.8523L24.897 42.8268C24.897 42.8268 24.1143 43.2084 23.3073 43.6409C22.9404 43.819 22.5736 44.0226 22.3045 44.2006C22.1089 44.3278 21.9377 44.4296 21.8154 44.5059C21.4486 44.7858 21.0083 46.3122 20.6904 47.5334C19.4431 49.4669 17.9757 51.6803 17.9757 51.6803C17.9757 51.6803 16.117 54.2498 15.7501 55.0385C15.7501 55.0385 14.8697 55.4201 13.5001 56.3105C13.5001 56.3105 14.405 54.9367 15.6768 54.4788C15.6768 54.4788 14.5028 54.148 13.9403 54.4788C13.9403 54.4788 14.2338 53.5374 15.4567 53.283C15.4567 53.283 14.5518 51.9092 13.4267 51.2478C13.0354 51.0188 12.7175 50.6881 12.424 50.3319C12.2284 49.5432 12.693 49.416 12.9621 48.7546C13.28 47.8896 13.011 47.3044 12.2528 46.9991C11.4947 46.7193 9.29356 47.279 9.29356 47.279C9.29356 47.279 10.443 46.5158 11.3235 46.4394C11.3235 46.4394 9.09791 46.2359 6.92126 45.6508C5.11146 45.1674 3.66851 45.2183 2.32339 45.7525C1.19838 46.185 1.85871 47.4825 2.49459 47.9659C3.13046 48.4493 3.96199 48.8563 3.96199 48.8563C3.96199 48.8563 3.64405 47.9404 4.69569 47.4825C4.69569 47.4825 4.27993 48.4747 4.50004 49.2379L4.96472 49.5178C4.96472 49.5178 4.74461 48.2966 5.86962 47.7624C5.86962 47.7624 5.30711 49.0853 5.50277 49.8231L6.30984 50.1284C6.30984 50.1284 6.35875 48.3221 7.48376 47.8896C7.48376 47.8896 6.87234 49.4923 7.31256 50.281C7.53267 50.6626 7.92398 50.8661 8.5354 50.9679C8.7066 51.1714 8.87779 51.3495 9.00008 51.5276C9.41584 52.2145 9.63595 54.8349 10.6142 56.7175C11.5925 58.5747 13.2556 61.3732 14.992 61.9075C16.7284 62.4163 18.6605 61.3223 20.2257 59.8977L21.6687 58.473C21.6687 58.473 20.2991 58.015 19.3697 56.8447C19.3697 56.8447 20.2991 57.0483 20.8616 57.2264C21.4241 57.4299 22.867 57.5571 22.867 57.5571C22.867 57.5571 20.8127 56.0561 20.1279 55.4709C19.7366 55.1402 19.4186 53.8682 19.223 52.876C20.5681 54.1989 22.6469 56.2087 23.5518 56.8193C25.2883 57.9896 26.0464 57.8624 26.0464 57.8624C26.0464 57.8624 29.3481 53.8173 30.4486 52.9269C30.4486 52.9269 27.2693 53.4102 24.8236 53.4866C24.8236 53.4866 28.4432 52.2654 30.3019 51.375C30.3019 51.375 27.6606 50.9934 26.4377 51.2986C26.4377 51.2986 29.6171 50.4845 31.8427 49.416C34.0682 48.3729 38.2503 46.8719 39.5465 46.8974C39.5465 46.8974 34.9242 48.1949 33.359 50.0775C33.359 50.0775 35.022 49.7722 35.9514 49.9248C35.9514 49.9248 32.772 52.24 32.3563 52.8505C32.3563 52.8505 34.8998 55.6236 36.3427 57.1246C37.7857 58.6256 39.9378 59.0581 39.9378 59.0581C39.9378 59.0581 39.3509 58.3203 38.7884 56.5903C38.5683 55.9289 38.4704 55.2674 38.446 54.6568C38.5927 55.2929 38.984 56.0052 39.4487 56.7939C40.0357 57.7352 42.3346 60.2538 42.5303 60.61C43.8754 59.5415 44.8781 59.5415 44.8781 59.5415C44.2667 59.9485 42.9216 61.3223 42.9216 61.3223C42.9216 61.3223 40.696 64.1463 39.9868 65.7745C39.2775 67.4281 38.3971 70.8372 37.9569 71.7022C37.9569 71.7022 40.8427 67.3264 41.821 65.6727C41.821 65.6727 40.2069 69.5906 38.9351 72.0584C37.7367 74.399 37.003 75.7728 36.6606 76.3833C36.4161 76.8158 36.196 77.2229 35.8536 77.8844C35.8291 77.8844 35.8291 77.9098 35.8047 77.9352C35.6335 78.2405 35.4623 78.5713 35.34 78.8511C35.2911 78.9529 35.2422 79.0546 35.2177 79.1564C35.1688 79.309 34.4351 80.6574 35.4378 81.1408C19.0273 81.4206 18.954 81.4206 17.8045 81.4461C16.704 82.8962 15.0164 83.8121 13.0844 83.8121C11.9593 83.8121 10.8832 83.4813 9.97835 82.9216C10.7365 83.3033 11.568 83.5068 12.4485 83.5068C14.1849 83.5068 15.7257 82.7181 16.7773 81.4715C17.6822 80.403 18.2447 79.0038 18.2447 77.4519C18.2447 75.4166 17.2909 73.6357 15.8235 72.5418C15.7746 72.5418 11.7637 72.3637 9.78269 75.4166C9.78269 75.4166 10.0273 73.1015 11.4458 71.7785C11.5436 71.6768 11.6414 71.6005 11.7392 71.5241C11.5191 71.6259 11.3235 71.7531 11.1034 71.8803C9.19573 73.1015 7.87507 75.2639 7.87507 78.8511C7.87507 78.8511 7.21474 77.0194 7.82616 74.7042C7.9729 74.1445 8.19301 73.5594 8.51094 72.9743C7.36148 74.0682 6.62777 75.671 6.62777 77.4264C6.62777 79.5889 7.72833 81.4715 9.36693 82.54L0 86L59.8212 80.8355Z" fill="#E73725"/>
<path d="M36.1483 11.56C36.1483 11.56 35.757 11.8146 35.1945 11.9928C34.6076 12.1965 33.7027 12.3493 33.7027 12.3493C33.7027 12.3493 33.9228 12.8331 34.5097 12.9349C34.8277 12.9858 35.757 12.6803 35.757 12.6803C35.5369 12.6803 35.2435 12.5275 35.2435 12.5275C35.5614 12.4002 36.1483 11.56 36.1483 11.56Z" fill="#E73725"/>
</svg>
